<svg data-v-423bf9ae="" xmlns="http://www.w3.org/2000/svg" viewBox="0 0 362 90" class="iconLeftSlogan"><!----><!----><!----><g data-v-423bf9ae="" id="e63c3ea1-b74e-4a7b-87b2-ec38099cbe47" fill="white" transform="matrix(8.310249000127993,0,0,8.310249000127993,108.2588083196556,-36.31578670268965)"><path d="M4.54 4.37C2.80 4.37 2.10 5.73 1.96 6.20L1.96 4.48L0.91 4.48L0.91 11.48L1.96 11.48L1.96 8.40C1.96 6.86 2.91 5.42 4.48 5.42L4.61 5.42L4.61 4.37ZM8.18 4.37C6.37 4.37 5.43 5.11 5.43 6.37C5.43 8.93 10.09 7.84 10.09 9.59C10.09 10.54 8.88 10.70 8.30 10.70C6.94 10.70 6.41 10.00 6.34 9.28L5.25 9.28C5.32 10.51 6.34 11.59 8.29 11.59C10.02 11.59 11.14 10.85 11.14 9.49C11.14 6.86 6.48 7.95 6.48 6.27C6.48 5.59 7.06 5.26 8.15 5.26C9.32 5.26 9.77 5.75 9.86 6.36L10.92 6.36C10.79 5.33 10.02 4.37 8.18 4.37ZM15.61 10.64C14.20 10.64 13.29 9.65 13.13 8.40L19.00 8.40L19.00 7.98C19.00 5.98 17.67 4.37 15.53 4.37C13.38 4.37 12.05 5.98 12.05 7.98C12.05 9.98 13.45 11.59 15.60 11.59C17.26 11.59 18.30 10.72 18.79 9.46L17.64 9.46C17.26 10.16 16.59 10.64 15.61 10.64ZM15.53 5.32C16.87 5.32 17.71 6.23 17.91 7.42L13.15 7.42C13.34 6.23 14.18 5.32 15.53 5.32ZM23.91 4.37C22.18 4.37 21.48 5.73 21.34 6.20L21.34 4.48L20.29 4.48L20.29 11.48L21.34 11.48L21.34 8.40C21.34 6.86 22.29 5.42 23.86 5.42L23.98 5.42L23.98 4.37ZM27.55 4.37C25.75 4.37 24.81 5.11 24.81 6.37C24.81 8.93 29.47 7.84 29.47 9.59C29.47 10.54 28.25 10.70 27.68 10.70C26.32 10.70 25.79 10.00 25.72 9.28L24.63 9.28C24.70 10.51 25.72 11.59 27.66 11.59C29.40 11.59 30.52 10.85 30.52 9.49C30.52 6.86 25.86 7.95 25.86 6.27C25.86 5.59 26.43 5.26 27.52 5.26C28.70 5.26 29.15 5.75 29.23 6.36L30.30 6.36C30.17 5.33 29.40 4.37 27.55 4.37Z"></path></g><!----><g data-v-423bf9ae="" id="c1a14f36-0243-49c9-9f60-9e5af4543689" transform="matrix(2.994410458179972,0,0,2.994410458179972,0.08943266912044834,-1.9385669710569857)" stroke="none" fill="white"><path d="M17.572 23.933l4.106 7.095L32 13.189h-8.981V7.582L11.51.972 0 7.582v13.222l11.51 6.611 6.062-3.482zm10.96-8.744l-6.855 11.846-6.855-11.846h13.71z"></path></g><!----><g data-v-423bf9ae="" id="f0b9a008-6892-468d-8733-b9f01241a517" fill="white" transform="matrix(0.858047179600305,0,0,0.858047179600305,115.49508007593191,57.64895199178486)"><path d="M0.39 12.41L0.38 11.87L0.55 11.87L0.55 11.87Q0.94 11.87 1.07 11.73L1.07 11.73L1.07 11.73Q1.19 11.57 1.52 10.83L1.52 10.83L2.43 8.82L3.01 7.53L3.01 7.53Q3.27 6.97 3.32 6.86L3.32 6.86L3.32 6.86Q3.38 6.70 3.44 6.60L3.44 6.60L3.44 6.60Q3.49 6.51 3.50 6.45L3.50 6.45L3.60 6.21L5.02 2.74L5.32 2.74L5.32 2.74Q6.17 4.98 8.36 10.25L8.36 10.25L8.36 10.25Q8.81 11.34 9.00 11.64L9.00 11.64L9.00 11.64Q9.14 11.87 9.58 11.87L9.58 11.87L9.79 11.87L9.78 12.41L6.58 12.41L6.60 11.87L7.01 11.87L7.01 11.87Q7.63 11.87 7.63 11.70L7.63 11.70L7.63 11.70Q7.63 11.63 7.49 11.27L7.49 11.27L6.45 8.72L3.21 8.72L2.10 11.18L2.10 11.18Q1.96 11.50 1.96 11.63L1.96 11.63L1.96 11.63Q1.96 11.79 2.06 11.83L2.06 11.83L2.06 11.83Q2.15 11.87 2.54 11.87L2.54 11.87L3.11 11.87L3.11 12.41L0.39 12.41ZM4.89 4.79L3.47 8.10L6.21 8.10L4.89 4.79ZM30.82 12.41L27.09 12.41L27.09 11.87L27.53 11.87L27.53 11.87Q27.90 11.87 27.96 11.81L27.96 11.81L27.96 11.81Q28.03 11.74 28.03 11.46L28.03 11.46L28.03 4.14L28.03 4.14Q28.03 3.81 27.95 3.72L27.95 3.72L27.95 3.72Q27.86 3.64 27.50 3.64L27.50 3.64L27.13 3.64L27.15 3.08L30.03 3.08L30.03 3.08Q31.18 3.08 31.83 3.19L31.83 3.19L31.83 3.19Q32.43 3.28 32.90 3.68L32.90 3.68L32.90 3.68Q34.09 4.64 34.09 6.19L34.09 6.19L34.09 6.19Q34.09 7.23 33.33 7.98L33.33 7.98L33.33 7.98Q32.55 8.74 31.14 8.73L31.14 8.73L31.14 8.73Q30.97 8.73 30.55 8.70L30.55 8.70L30.55 8.70Q30.44 8.69 30.02 8.62L30.02 8.62L30.02 8.62Q29.68 8.55 29.59 8.54L29.59 8.54L29.59 8.54Q29.29 8.47 29.28 8.46L29.28 8.46L29.16 8.44L29.16 11.46L29.16 11.46Q29.16 11.74 29.29 11.81L29.29 11.81L29.29 11.81Q29.40 11.87 30.12 11.87L30.12 11.87L30.82 11.87L30.82 12.41ZM29.16 4.28L29.16 8.02L29.16 8.02Q29.51 8.29 30.48 8.29L30.48 8.29L30.48 8.29Q31.62 8.29 32.19 7.75L32.19 7.75L32.19 7.75Q32.78 7.21 32.78 6.16L32.78 6.16L32.78 6.16Q32.78 4.98 31.87 4.31L31.87 4.31L31.87 4.31Q30.97 3.64 29.59 3.64L29.59 3.64L29.59 3.64Q29.33 3.64 29.25 3.75L29.25 3.75L29.25 3.75Q29.17 3.84 29.16 4.28L29.16 4.28ZM42.45 7.83L42.45 7.83L42.45 7.83Q42.45 6.62 42.85 5.68L42.85 5.68L42.85 5.68Q43.27 4.72 43.96 4.12L43.96 4.12L43.96 4.12Q44.65 3.51 45.51 3.19L45.51 3.19L45.51 3.19Q46.35 2.88 47.30 2.88L47.30 2.88L47.30 2.88Q48.56 2.88 49.62 3.40L49.62 3.40L49.62 3.40Q50.70 3.93 51.41 5.07L51.41 5.07L51.41 5.07Q52.10 6.17 52.11 7.75L52.11 7.75L52.11 7.75Q52.11 8.70 51.80 9.54L51.80 9.54L51.80 9.54Q51.50 10.38 50.89 11.10L50.89 11.10L50.89 11.10Q50.29 11.81 49.35 12.22L49.35 12.22L49.35 12.22Q48.38 12.63 47.20 12.64L47.20 12.64L47.20 12.64Q46.06 12.64 45.12 12.23L45.12 12.23L45.12 12.23Q44.19 11.83 43.63 11.14L43.63 11.14L43.63 11.14Q43.05 10.45 42.76 9.60L42.76 9.60L42.76 9.60Q42.45 8.72 42.45 7.83ZM43.71 7.38L43.71 7.38L43.71 7.38Q43.71 8.52 44.14 9.60L44.14 9.60L44.14 9.60Q44.54 10.64 45.47 11.33L45.47 11.33L45.47 11.33Q46.38 12.03 47.57 12.04L47.57 12.04L47.57 12.04Q48.95 12.04 49.88 11.01L49.88 11.01L49.88 11.01Q50.83 9.97 50.83 8.10L50.83 8.10L50.83 8.10Q50.83 5.99 49.67 4.72L49.67 4.72L49.67 4.72Q48.52 3.46 47.01 3.45L47.01 3.45L47.01 3.45Q46.49 3.45 45.95 3.65L45.95 3.65L45.95 3.65Q45.40 3.85 44.90 4.25L44.90 4.25L44.90 4.25Q44.35 4.68 44.03 5.48L44.03 5.48L44.03 5.48Q43.71 6.27 43.71 7.38ZM60.56 3.64L60.17 3.64L60.18 3.08L63.40 3.08L63.40 3.08Q64.54 3.08 65.14 3.21L65.14 3.21L65.14 3.21Q65.78 3.37 66.25 3.75L66.25 3.75L66.25 3.75Q67.25 4.57 67.25 5.71L67.25 5.71L67.25 5.71Q67.25 6.43 66.78 7.04L66.78 7.04L66.78 7.04Q66.29 7.66 65.26 7.92L65.26 7.92L67.94 11.49L67.94 11.49Q68.25 11.87 68.54 11.87L68.54 11.87L69.15 11.87L69.17 12.41L67.14 12.41L64.15 8.10L63.98 8.10L63.98 8.10Q63.94 8.10 63.88 8.11L63.88 8.11L63.88 8.11Q63.83 8.11 63.81 8.11L63.81 8.11L63.81 8.11Q62.93 8.11 62.54 8.03L62.54 8.03L62.54 11.46L62.54 11.46Q62.54 11.76 62.68 11.81L62.68 11.81L62.68 11.81Q62.80 11.87 63.51 11.87L63.51 11.87L64.22 11.87L64.19 12.41L60.46 12.41L60.46 11.87L60.79 11.87L60.79 11.87Q61.25 11.87 61.32 11.81L61.32 11.81L61.32 11.81Q61.40 11.74 61.40 11.46L61.40 11.46L61.40 4.14L61.40 4.14Q61.40 3.82 61.21 3.73L61.21 3.73L61.21 3.73Q60.98 3.64 60.56 3.64L60.56 3.64ZM62.54 4.28L62.54 7.57L62.54 7.57Q62.72 7.70 63.43 7.71L63.43 7.71L63.43 7.71Q64.70 7.71 65.28 7.27L65.28 7.27L65.28 7.27Q65.87 6.84 65.87 5.92L65.87 5.92L65.87 5.92Q65.87 4.92 65.10 4.27L65.10 4.27L65.10 4.27Q64.34 3.64 62.96 3.64L62.96 3.64L62.96 3.64Q62.71 3.64 62.62 3.75L62.62 3.75L62.62 3.75Q62.54 3.84 62.54 4.28L62.54 4.28ZM77.21 5.35L76.71 5.33L76.71 5.33Q76.83 4.17 76.91 3.08L76.91 3.08L84.99 3.08L84.99 3.08Q84.91 4.13 84.88 4.53L84.88 4.53L84.88 4.53Q84.84 5.26 84.82 5.32L84.82 5.32L84.32 5.30L84.32 5.30Q84.40 4.34 84.40 4.16L84.40 4.16L84.40 4.16Q84.40 3.88 84.26 3.79L84.26 3.79L84.26 3.79Q84.09 3.69 83.69 3.69L83.69 3.69L82.08 3.69L82.08 3.69Q81.57 3.69 81.45 3.79L81.45 3.79L81.45 3.79Q81.35 3.87 81.35 4.36L81.35 4.36L81.35 11.22L81.35 11.22Q81.35 11.66 81.49 11.76L81.49 11.76L81.49 11.76Q81.65 11.87 82.16 11.87L82.16 11.87L82.72 11.87L82.74 12.41L79.04 12.40L79.04 11.87L79.26 11.87L79.26 11.87Q79.93 11.87 80.08 11.79L80.08 11.79L80.08 11.79Q80.22 11.70 80.22 11.28L80.22 11.28L80.22 4.48L80.22 4.48Q80.22 3.92 80.12 3.80L80.12 3.80L80.12 3.80Q80.02 3.69 79.60 3.69L79.60 3.69L78.13 3.69L78.13 3.69Q77.94 3.69 77.88 3.71L77.88 3.71L77.88 3.71Q77.81 3.72 77.70 3.72L77.70 3.72L77.70 3.72Q77.67 3.72 77.55 3.79L77.55 3.79L77.55 3.79Q77.47 3.84 77.44 3.86L77.44 3.86L77.44 3.86Q77.42 3.88 77.38 3.99L77.38 3.99L77.38 3.99Q77.35 4.05 77.32 4.14L77.32 4.14L77.32 4.14Q77.29 4.21 77.27 4.36L77.27 4.36L77.27 4.36Q77.25 4.59 77.25 4.61L77.25 4.61L77.25 4.61Q77.25 4.80 77.23 4.95L77.23 4.95L77.23 4.95Q77.23 5.02 77.23 5.15L77.23 5.15L77.23 5.15Q77.22 5.29 77.21 5.35L77.21 5.35ZM92.74 3.64L92.73 3.08L99.91 3.08L99.91 3.08Q99.93 4.14 99.98 5.28L99.98 5.28L99.44 5.30L99.44 5.30Q99.42 4.66 99.37 4.25L99.37 4.25L99.37 4.25Q99.33 3.89 99.27 3.80L99.27 3.80L99.27 3.80Q99.22 3.71 99.10 3.69L99.10 3.69L99.10 3.69Q99.00 3.68 98.42 3.68L98.42 3.68L96.04 3.68L96.04 3.68Q95.49 3.68 95.35 3.77L95.35 3.77L95.35 3.77Q95.22 3.86 95.22 4.33L95.22 4.33L95.22 6.28L95.22 6.28Q95.22 6.69 95.28 6.76L95.28 6.76L95.28 6.76Q95.35 6.84 95.68 6.84L95.68 6.84L97.80 6.84L97.80 6.84Q98.16 6.84 98.25 6.74L98.25 6.74L98.25 6.74Q98.33 6.64 98.33 6.17L98.33 6.17L98.33 5.63L98.85 5.63L98.85 8.97L98.33 8.97L98.33 8.26L98.33 8.26Q98.33 7.68 98.25 7.57L98.25 7.57L98.25 7.57Q98.16 7.46 97.83 7.46L97.83 7.46L95.73 7.46L95.73 7.46Q95.40 7.46 95.31 7.54L95.31 7.54L95.31 7.54Q95.22 7.63 95.22 7.89L95.22 7.89L95.22 11.20L95.22 11.20Q95.22 11.60 95.29 11.73L95.29 11.73L95.29 11.73Q95.38 11.87 95.64 11.87L95.64 11.87L96.58 11.87L96.58 12.41L92.98 12.41L92.98 11.87L93.39 11.87L93.39 11.87Q93.90 11.87 93.99 11.79L93.99 11.79L93.99 11.79Q94.09 11.70 94.09 11.33L94.09 11.33L94.09 4.24L94.09 4.24Q94.09 3.79 93.92 3.71L93.92 3.71L93.92 3.71Q93.78 3.64 92.74 3.64L92.74 3.64ZM108.41 7.83L108.41 7.83L108.41 7.83Q108.41 6.62 108.81 5.68L108.81 5.68L108.81 5.68Q109.23 4.72 109.92 4.12L109.92 4.12L109.92 4.12Q110.61 3.51 111.47 3.19L111.47 3.19L111.47 3.19Q112.31 2.88 113.26 2.88L113.26 2.88L113.26 2.88Q114.52 2.88 115.58 3.40L115.58 3.40L115.58 3.40Q116.66 3.93 117.37 5.07L117.37 5.07L117.37 5.07Q118.06 6.17 118.07 7.75L118.07 7.75L118.07 7.75Q118.07 8.70 117.76 9.54L117.76 9.54L117.76 9.54Q117.46 10.38 116.85 11.10L116.85 11.10L116.85 11.10Q116.25 11.81 115.31 12.22L115.31 12.22L115.31 12.22Q114.34 12.63 113.16 12.64L113.16 12.64L113.16 12.64Q112.02 12.64 111.08 12.23L111.08 12.23L111.08 12.23Q110.15 11.83 109.59 11.14L109.59 11.14L109.59 11.14Q109.01 10.45 108.72 9.60L108.72 9.60L108.72 9.60Q108.41 8.72 108.41 7.83ZM109.67 7.38L109.67 7.38L109.67 7.38Q109.67 8.52 110.10 9.60L110.10 9.60L110.10 9.60Q110.50 10.64 111.43 11.33L111.43 11.33L111.43 11.33Q112.34 12.03 113.53 12.04L113.53 12.04L113.53 12.04Q114.91 12.04 115.84 11.01L115.84 11.01L115.84 11.01Q116.79 9.97 116.79 8.10L116.79 8.10L116.79 8.10Q116.79 5.99 115.63 4.72L115.63 4.72L115.63 4.72Q114.48 3.46 112.97 3.45L112.97 3.45L112.97 3.45Q112.45 3.45 111.91 3.65L111.91 3.65L111.91 3.65Q111.36 3.85 110.86 4.25L110.86 4.25L110.86 4.25Q110.31 4.68 109.99 5.48L109.99 5.48L109.99 5.48Q109.67 6.27 109.67 7.38ZM126.68 3.64L126.18 3.64L126.20 3.08L129.79 3.08L129.79 3.64L129.15 3.64L129.15 3.64Q128.78 3.64 128.66 3.72L128.66 3.72L128.66 3.72Q128.55 3.80 128.55 4.16L128.55 4.16L128.55 11.22L128.55 11.22Q128.55 11.57 128.64 11.67L128.64 11.67L128.64 11.67Q128.72 11.77 129.01 11.77L129.01 11.77L129.01 11.77Q131.89 11.74 132.54 11.63L132.54 11.63L132.54 11.63Q132.75 11.61 132.84 11.39L132.84 11.39L132.84 11.39Q132.92 11.17 133.12 10.05L133.12 10.05L133.61 10.08L133.14 12.41L126.38 12.41L126.37 11.87L126.76 11.87L126.76 11.87Q127.26 11.87 127.33 11.80L127.33 11.80L127.33 11.80Q127.42 11.72 127.42 11.33L127.42 11.33L127.42 4.09L127.42 4.09Q127.42 3.80 127.26 3.72L127.26 3.72L127.26 3.72Q127.11 3.64 126.68 3.64L126.68 3.64ZM141.93 3.64L141.34 3.64L141.35 3.08L144.87 3.08L144.87 3.64L144.63 3.64L144.63 3.64Q144.09 3.64 143.92 3.73L143.92 3.73L143.92 3.73Q143.78 3.81 143.78 4.28L143.78 4.28L143.78 11.22L143.78 11.22Q143.78 11.68 143.89 11.77L143.89 11.77L143.89 11.77Q144.00 11.87 144.53 11.87L144.53 11.87L145.08 11.87L145.09 12.41L141.51 12.41L141.50 11.87L141.86 11.87L141.86 11.87Q142.42 11.87 142.53 11.77L142.53 11.77L142.53 11.77Q142.65 11.67 142.65 11.25L142.65 11.25L142.65 4.14L142.65 4.14Q142.65 3.77 142.54 3.71L142.54 3.71L142.54 3.71Q142.43 3.64 141.93 3.64L141.93 3.64ZM153.21 7.83L153.21 7.83L153.21 7.83Q153.21 6.62 153.62 5.68L153.62 5.68L153.62 5.68Q154.03 4.72 154.72 4.12L154.72 4.12L154.72 4.12Q155.42 3.51 156.28 3.19L156.28 3.19L156.28 3.19Q157.12 2.88 158.07 2.88L158.07 2.88L158.07 2.88Q159.33 2.88 160.38 3.40L160.38 3.40L160.38 3.40Q161.46 3.93 162.17 5.07L162.17 5.07L162.17 5.07Q162.87 6.17 162.87 7.75L162.87 7.75L162.87 7.75Q162.87 8.70 162.57 9.54L162.57 9.54L162.57 9.54Q162.26 10.38 161.65 11.10L161.65 11.10L161.65 11.10Q161.05 11.81 160.11 12.22L160.11 12.22L160.11 12.22Q159.15 12.63 157.96 12.64L157.96 12.64L157.96 12.64Q156.82 12.64 155.89 12.23L155.89 12.23L155.89 12.23Q154.95 11.83 154.39 11.14L154.39 11.14L154.39 11.14Q153.82 10.45 153.52 9.60L153.52 9.60L153.52 9.60Q153.21 8.72 153.21 7.83ZM154.47 7.38L154.47 7.38L154.47 7.38Q154.47 8.52 154.90 9.60L154.90 9.60L154.90 9.60Q155.31 10.64 156.24 11.33L156.24 11.33L156.24 11.33Q157.14 12.03 158.33 12.04L158.33 12.04L158.33 12.04Q159.71 12.04 160.64 11.01L160.64 11.01L160.64 11.01Q161.59 9.97 161.59 8.10L161.59 8.10L161.59 8.10Q161.59 5.99 160.43 4.72L160.43 4.72L160.43 4.72Q159.28 3.46 157.77 3.45L157.77 3.45L157.77 3.45Q157.25 3.45 156.71 3.65L156.71 3.65L156.71 3.65Q156.17 3.85 155.66 4.25L155.66 4.25L155.66 4.25Q155.11 4.68 154.79 5.48L154.79 5.48L154.79 5.48Q154.47 6.27 154.47 7.38ZM180.53 10.04L180.53 10.04L181.02 9.98L181.21 10.85L181.21 10.85Q181.32 11.33 181.38 11.41L181.38 11.41L181.38 11.41Q181.45 11.49 181.86 11.64L181.86 11.64L181.86 11.64Q182.70 11.95 183.60 11.95L183.60 11.95L183.60 11.95Q184.39 11.95 184.93 11.49L184.93 11.49L184.93 11.49Q185.46 11.04 185.46 10.26L185.46 10.26L185.46 10.26Q185.46 9.65 185.00 9.21L185.00 9.21L185.00 9.21Q184.52 8.76 183.67 8.30L183.67 8.30L183.09 7.98L183.09 7.98Q182.35 7.55 182.12 7.36L182.12 7.36L182.12 7.36Q181.75 7.08 181.44 6.59L181.44 6.59L181.44 6.59Q181.13 6.10 181.13 5.46L181.13 5.46L181.13 5.46Q181.13 4.39 181.97 3.68L181.97 3.68L181.97 3.68Q182.81 2.97 183.92 2.97L183.92 2.97L183.92 2.97Q184.20 2.97 184.55 3.04L184.55 3.04L184.55 3.04Q184.75 3.08 185.08 3.17L185.08 3.17L185.32 3.25L185.32 3.25Q185.42 3.25 185.46 3.16L185.46 3.16L185.46 3.16Q185.51 3.05 185.51 2.98L185.51 2.98L185.53 2.88L186.01 2.85L186.22 5.41L185.71 5.43L185.59 4.18L185.59 4.18Q184.84 3.62 183.68 3.62L183.68 3.62L183.68 3.62Q183.04 3.62 182.53 4.05L182.53 4.05L182.53 4.05Q182.05 4.47 182.05 5.12L182.05 5.12L182.05 5.12Q182.05 5.72 182.51 6.17L182.51 6.17L182.51 6.17Q182.94 6.60 183.80 7.08L183.80 7.08L184.58 7.50L184.58 7.50Q185.53 8.03 186.06 8.59L186.06 8.59L186.06 8.59Q186.59 9.15 186.59 9.92L186.59 9.92L186.59 9.92Q186.59 10.99 185.74 11.76L185.74 11.76L185.74 11.76Q184.87 12.54 183.42 12.54L183.42 12.54L183.42 12.54Q182.85 12.54 182.35 12.41L182.35 12.41L182.35 12.41Q181.85 12.29 181.79 12.29L181.79 12.29L181.79 12.29Q181.54 12.29 181.54 12.58L181.54 12.58L181.56 12.76L181.08 12.80L181.08 12.80Q181.02 12.41 180.53 10.04ZM195.36 3.64L194.78 3.64L194.79 3.08L198.30 3.08L198.30 3.64L198.07 3.64L198.07 3.64Q197.52 3.64 197.35 3.73L197.35 3.73L197.35 3.73Q197.22 3.81 197.22 4.28L197.22 4.28L197.22 11.22L197.22 11.22Q197.22 11.68 197.33 11.77L197.33 11.77L197.33 11.77Q197.44 11.87 197.97 11.87L197.97 11.87L198.52 11.87L198.53 12.41L194.95 12.41L194.93 11.87L195.30 11.87L195.30 11.87Q195.86 11.87 195.97 11.77L195.97 11.77L195.97 11.77Q196.08 11.67 196.08 11.25L196.08 11.25L196.08 4.14L196.08 4.14Q196.08 3.77 195.98 3.71L195.98 3.71L195.98 3.71Q195.87 3.64 195.36 3.64L195.36 3.64ZM206.55 5.35L206.05 5.33L206.05 5.33Q206.17 4.17 206.25 3.08L206.25 3.08L214.33 3.08L214.33 3.08Q214.25 4.13 214.22 4.53L214.22 4.53L214.22 4.53Q214.18 5.26 214.16 5.32L214.16 5.32L213.66 5.30L213.66 5.30Q213.75 4.34 213.75 4.16L213.75 4.16L213.75 4.16Q213.75 3.88 213.60 3.79L213.60 3.79L213.60 3.79Q213.43 3.69 213.03 3.69L213.03 3.69L211.42 3.69L211.42 3.69Q210.92 3.69 210.79 3.79L210.79 3.79L210.79 3.79Q210.70 3.87 210.69 4.36L210.69 4.36L210.69 11.22L210.69 11.22Q210.69 11.66 210.83 11.76L210.83 11.76L210.83 11.76Q210.99 11.87 211.50 11.87L211.50 11.87L212.06 11.87L212.08 12.41L208.39 12.40L208.39 11.87L208.61 11.87L208.61 11.87Q209.28 11.87 209.42 11.79L209.42 11.79L209.42 11.79Q209.56 11.70 209.56 11.28L209.56 11.28L209.56 4.48L209.56 4.48Q209.56 3.92 209.46 3.80L209.46 3.80L209.46 3.80Q209.36 3.69 208.94 3.69L208.94 3.69L207.47 3.69L207.47 3.69Q207.29 3.69 207.22 3.71L207.22 3.71L207.22 3.71Q207.15 3.72 207.04 3.72L207.04 3.72L207.04 3.72Q207.01 3.72 206.90 3.79L206.90 3.79L206.90 3.79Q206.81 3.84 206.79 3.86L206.79 3.86L206.79 3.86Q206.76 3.88 206.72 3.99L206.72 3.99L206.72 3.99Q206.69 4.05 206.66 4.14L206.66 4.14L206.66 4.14Q206.64 4.21 206.62 4.36L206.62 4.36L206.62 4.36Q206.59 4.59 206.59 4.61L206.59 4.61L206.59 4.61Q206.59 4.80 206.58 4.95L206.58 4.95L206.58 4.95Q206.58 5.02 206.57 5.15L206.57 5.15L206.57 5.15Q206.56 5.29 206.55 5.35L206.55 5.35ZM222.09 3.64L222.07 3.08L229.28 3.08L229.28 3.08Q229.30 4.14 229.35 5.28L229.35 5.28L228.81 5.30L228.81 5.30Q228.79 4.66 228.74 4.25L228.74 4.25L228.74 4.25Q228.70 3.89 228.64 3.80L228.64 3.80L228.64 3.80Q228.59 3.71 228.47 3.69L228.47 3.69L228.47 3.69Q228.38 3.68 227.79 3.68L227.79 3.68L225.41 3.68L225.41 3.68Q224.86 3.68 224.72 3.77L224.72 3.77L224.72 3.77Q224.59 3.86 224.59 4.33L224.59 4.33L224.59 6.28L224.59 6.28Q224.59 6.69 224.65 6.76L224.65 6.76L224.65 6.76Q224.72 6.84 225.06 6.84L225.06 6.84L227.17 6.84L227.17 6.84Q227.53 6.84 227.62 6.73L227.62 6.73L227.62 6.73Q227.70 6.63 227.71 6.14L227.71 6.14L227.71 5.61L228.22 5.63L228.22 8.97L227.71 8.97L227.71 8.24L227.71 8.24Q227.71 7.66 227.63 7.57L227.63 7.57L227.63 7.57Q227.55 7.46 227.20 7.46L227.20 7.46L225.10 7.46L225.10 7.46Q224.77 7.46 224.68 7.54L224.68 7.54L224.68 7.54Q224.59 7.63 224.59 7.89L224.59 7.89L224.59 11.20L224.59 11.20Q224.59 11.57 224.68 11.67L224.68 11.67L224.68 11.67Q224.77 11.77 225.04 11.77L225.04 11.77L225.04 11.77Q227.96 11.75 228.48 11.69L228.48 11.69L228.48 11.69Q229.00 11.63 229.09 11.38L229.09 11.38L229.09 11.36L229.10 11.35L229.33 10.17L229.80 10.25L229.46 12.41L222.35 12.41L222.35 11.87L222.72 11.87L222.72 11.87Q223.28 11.87 223.36 11.80L223.36 11.80L223.36 11.80Q223.46 11.72 223.46 11.33L223.46 11.33L223.46 4.24L223.46 4.24Q223.46 3.82 223.31 3.73L223.31 3.73L223.31 3.73Q223.14 3.64 222.48 3.64L222.48 3.64L222.09 3.64Z"></path></g></svg>