<svg data-v-423bf9ae="" xmlns="http://www.w3.org/2000/svg" viewBox="0 0 246.06647796596332 60" class="font"><!----><!----><!----><g data-v-423bf9ae="" id="52066f48-3ba0-43f1-9933-8750ba89d5fb" fill="black" transform="matrix(8.310249000127993,0,0,8.310249000127993,-7.562328154953775,-36.31578670268965)"><path d="M4.54 4.37C2.80 4.37 2.10 5.73 1.96 6.20L1.96 4.48L0.91 4.48L0.91 11.48L1.96 11.48L1.96 8.40C1.96 6.86 2.91 5.42 4.48 5.42L4.61 5.42L4.61 4.37ZM8.18 4.37C6.37 4.37 5.43 5.11 5.43 6.37C5.43 8.93 10.09 7.84 10.09 9.59C10.09 10.54 8.88 10.70 8.30 10.70C6.94 10.70 6.41 10.00 6.34 9.28L5.25 9.28C5.32 10.51 6.34 11.59 8.29 11.59C10.02 11.59 11.14 10.85 11.14 9.49C11.14 6.86 6.48 7.95 6.48 6.27C6.48 5.59 7.06 5.26 8.15 5.26C9.32 5.26 9.77 5.75 9.86 6.36L10.92 6.36C10.79 5.33 10.02 4.37 8.18 4.37ZM15.61 10.64C14.20 10.64 13.29 9.65 13.13 8.40L19.00 8.40L19.00 7.98C19.00 5.98 17.67 4.37 15.53 4.37C13.38 4.37 12.05 5.98 12.05 7.98C12.05 9.98 13.45 11.59 15.60 11.59C17.26 11.59 18.30 10.72 18.79 9.46L17.64 9.46C17.26 10.16 16.59 10.64 15.61 10.64ZM15.53 5.32C16.87 5.32 17.71 6.23 17.91 7.42L13.15 7.42C13.34 6.23 14.18 5.32 15.53 5.32ZM23.91 4.37C22.18 4.37 21.48 5.73 21.34 6.20L21.34 4.48L20.29 4.48L20.29 11.48L21.34 11.48L21.34 8.40C21.34 6.86 22.29 5.42 23.86 5.42L23.98 5.42L23.98 4.37ZM27.55 4.37C25.75 4.37 24.81 5.11 24.81 6.37C24.81 8.93 29.47 7.84 29.47 9.59C29.47 10.54 28.25 10.70 27.68 10.70C26.32 10.70 25.79 10.00 25.72 9.28L24.63 9.28C24.70 10.51 25.72 11.59 27.66 11.59C29.40 11.59 30.52 10.85 30.52 9.49C30.52 6.86 25.86 7.95 25.86 6.27C25.86 5.59 26.43 5.26 27.52 5.26C28.70 5.26 29.15 5.75 29.23 6.36L30.30 6.36C30.17 5.33 29.40 4.37 27.55 4.37Z"></path></g><!----><!----></svg>